<?xml version="1.0" encoding="UTF-8" standalone="no"?>
<!DOCTYPE svg PUBLIC "-//W3C//DTD SVG 1.1//EN"
 "http://www.w3.org/Graphics/SVG/1.1/DTD/svg11.dtd">
<!-- Generated by graphviz version 2.44.0 (0)
 -->
<!-- Title: /home/lyonh/Documents/GH/PageWithCi/src/main.cpp Pages: 1 -->
<svg width="157pt" height="95pt"
 viewBox="0.00 0.00 157.00 95.00" xmlns="http://www.w3.org/2000/svg" xmlns:xlink="http://www.w3.org/1999/xlink">
<g id="graph0" class="graph" transform="scale(1 1) rotate(0) translate(4 91)">
<title>/home/lyonh/Documents/GH/PageWithCi/src/main.cpp</title>
<polygon fill="white" stroke="transparent" points="-4,4 -4,-91 153,-91 153,4 -4,4"/>
<!-- Node1 -->
<g id="node1" class="node">
<title>Node1</title>
<g id="a_node1"><a xlink:title=" ">
<polygon fill="#bfbfbf" stroke="black" points="0,-56.5 0,-86.5 149,-86.5 149,-56.5 0,-56.5"/>
<text text-anchor="start" x="8" y="-74.5" font-family="Helvetica" font-size="10.00">/home/lyonh/Documents</text>
<text text-anchor="middle" x="74.5" y="-63.5" font-family="Helvetica" font-size="10.00">/GH/PageWithCi/src/main.cpp</text>
</a>
</g>
</g>
<!-- Node2 -->
<g id="node2" class="node">
<title>Node2</title>
<g id="a_node2"><a xlink:title=" ">
<polygon fill="white" stroke="#bfbfbf" points="12.5,-0.5 12.5,-19.5 66.5,-19.5 66.5,-0.5 12.5,-0.5"/>
<text text-anchor="middle" x="39.5" y="-7.5" font-family="Helvetica" font-size="10.00">iostream</text>
</a>
</g>
</g>
<!-- Node1&#45;&gt;Node2 -->
<g id="edge1" class="edge">
<title>Node1&#45;&gt;Node2</title>
<path fill="none" stroke="midnightblue" d="M66.21,-56.4C61.28,-48.02 54.99,-37.33 49.75,-28.42"/>
<polygon fill="midnightblue" stroke="midnightblue" points="52.68,-26.5 44.59,-19.66 46.65,-30.05 52.68,-26.5"/>
</g>
<!-- Node3 -->
<g id="node3" class="node">
<title>Node3</title>
<g id="a_node3"><a xlink:title=" ">
<polygon fill="white" stroke="#bfbfbf" points="84.5,-0.5 84.5,-19.5 136.5,-19.5 136.5,-0.5 84.5,-0.5"/>
<text text-anchor="middle" x="110.5" y="-7.5" font-family="Helvetica" font-size="10.00">ostream</text>
</a>
</g>
</g>
<!-- Node1&#45;&gt;Node3 -->
<g id="edge2" class="edge">
<title>Node1&#45;&gt;Node3</title>
<path fill="none" stroke="midnightblue" d="M83.03,-56.4C88.1,-48.02 94.57,-37.33 99.96,-28.42"/>
<polygon fill="midnightblue" stroke="midnightblue" points="103.08,-30.03 105.26,-19.66 97.09,-26.4 103.08,-30.03"/>
</g>
</g>
</svg>
